<svg version="1.1" id="Layer_1" xmlns="http://www.w3.org/2000/svg" xmlns:xlink="http://www.w3.org/1999/xlink" x="0px" y="0px"
	 width="100%" viewBox="0 0 654 261" enable-background="new 0 0 654 261" xml:space="preserve">
<path fill="#000000" opacity="1.000000" stroke="none" 
	d="
M499.000000,262.000000 
	C332.666656,262.000000 166.833328,262.000000 1.000000,262.000000 
	C1.000000,175.000000 1.000000,88.000000 1.000000,1.000000 
	C219.000000,1.000000 437.000000,1.000000 655.000000,1.000000 
	C655.000000,88.000000 655.000000,175.000000 655.000000,262.000000 
	C603.166687,262.000000 551.333313,262.000000 499.000000,262.000000 
M422.027588,83.935234 
	C422.073792,94.958969 422.120026,105.982697 422.024841,117.933403 
	C422.024841,140.188766 422.024841,162.444138 422.024841,185.313141 
	C425.223816,184.825684 427.903015,184.155029 430.604523,184.047974 
	C449.424866,183.302124 468.245972,182.507996 487.074707,182.063599 
	C500.026154,181.757904 499.851349,181.994537 500.096954,168.887787 
	C500.181152,164.395676 499.116394,162.745209 494.306915,162.901733 
	C476.583221,163.478531 458.845978,163.639481 441.017120,163.030960 
	C440.955780,157.355225 440.894470,151.679504 440.983917,145.100235 
	C441.007751,141.749908 441.031616,138.399582 441.833984,134.647873 
	C441.887726,105.780228 441.947510,76.912582 441.955536,48.044922 
	C441.955688,47.416267 441.363525,46.787453 440.130829,46.027172 
	C434.413757,46.076935 428.696716,46.126698 422.174744,46.471275 
	C422.171570,58.650154 422.168427,70.829033 422.027588,83.935234 
M383.025879,81.932915 
	C383.072754,92.624420 383.119629,103.315933 383.026550,114.934471 
	C383.026550,138.494232 383.026550,162.054001 383.026550,186.351242 
	C389.588013,185.858643 395.695282,185.400116 401.833069,184.939316 
	C401.833069,175.919495 401.833069,167.462982 401.986023,158.079376 
	C401.935089,150.721222 401.884186,143.363068 401.990387,135.542084 
	C401.990387,135.542084 402.052826,135.057312 402.830811,134.652405 
	C402.885620,105.450241 402.946381,76.248085 402.955566,47.045918 
	C402.955750,46.416943 402.364014,45.787781 401.228302,45.027691 
	C396.855072,45.005974 392.481873,44.984257 387.690491,44.226234 
	C386.244781,44.144295 384.799072,44.062355 383.165985,43.969795 
	C383.165985,56.526546 383.165985,68.766068 383.025879,81.932915 
M52.026447,112.935310 
	C52.026447,133.926285 52.026447,154.917267 52.026447,175.835159 
	C55.345203,175.835159 58.146778,175.835159 61.779186,175.986694 
	C64.866211,176.018661 67.953239,176.050629 71.818260,175.666748 
	C71.818260,158.486710 71.818260,141.306671 71.818260,123.997551 
	C78.471512,123.997551 84.275146,124.099983 90.072624,123.955322 
	C93.072731,123.880463 96.061920,123.367493 99.985458,123.010033 
	C108.904854,123.010033 117.824249,123.010033 126.668549,123.010033 
	C126.668549,116.663879 126.668549,110.938629 126.668549,105.941612 
	C108.232391,105.941612 90.136040,105.941612 71.998970,105.017181 
	C72.008987,94.367149 72.018997,83.717125 72.953026,73.008232 
	C88.968315,71.956345 104.983597,70.904449 121.910469,69.982178 
	C126.565109,69.708267 131.219742,69.434357 135.995148,69.153343 
	C135.995148,63.938271 135.851883,59.619328 136.042038,55.315113 
	C136.185242,52.073853 134.985367,50.720951 131.714462,50.987648 
	C123.179825,51.683525 114.632698,52.226894 106.098808,52.931141 
	C91.700569,54.119335 77.306168,55.356438 62.916035,56.638947 
	C59.582962,56.936001 56.273594,57.499004 52.195316,58.373985 
	C52.186119,76.252182 52.176922,94.130379 52.026447,112.935310 
M369.993500,108.083443 
	C369.991974,88.090103 370.008148,68.096710 369.948608,48.103554 
	C369.944702,46.792294 369.361481,45.482758 368.114380,44.028038 
	C362.169861,44.020092 356.211365,44.258053 350.285614,43.920719 
	C346.095428,43.682182 343.996399,44.709484 343.716431,49.317436 
	C343.537323,52.265625 342.057007,55.134758 340.999451,58.805439 
	C339.388489,64.205170 337.777496,69.604904 336.011353,75.777374 
	C334.057404,82.185387 332.103485,88.593391 329.987091,95.780792 
	C328.040131,102.187439 326.093140,108.594086 323.982269,115.781349 
	C322.033600,122.194359 320.084900,128.607361 317.982208,135.810333 
	C315.946930,143.190308 313.911621,150.570267 311.458130,157.969498 
	C311.458130,157.969498 311.047028,157.890594 311.023743,157.059387 
	C309.366608,150.330215 307.709473,143.601044 306.009583,136.073441 
	C304.381622,130.698959 302.753662,125.324478 301.021698,119.134186 
	C299.029633,112.379814 297.037598,105.625435 295.009460,98.062149 
	C292.617249,90.044441 290.225006,82.026741 287.983368,73.215454 
	C285.224701,63.503502 282.466064,53.791553 279.651123,43.881512 
	C270.676300,44.355789 261.980927,44.815304 253.166306,45.281116 
	C253.166306,53.414513 253.166306,61.209179 253.026611,69.929466 
	C253.073395,75.288071 253.120178,80.646683 253.026581,86.932281 
	C253.073334,93.623466 253.120087,100.314644 253.026123,107.932907 
	C253.072876,115.623390 253.119614,123.313881 253.024902,131.931213 
	C253.072403,138.288818 253.119904,144.646408 253.024902,151.927750 
	C253.072449,156.952972 253.119980,161.978210 253.022293,167.929413 
	C253.022293,173.501846 253.022293,179.074280 253.022293,185.004730 
	C256.250183,185.004730 259.024017,184.990845 261.797638,185.008453 
	C264.876984,185.027985 267.956146,185.076248 271.808563,184.679504 
	C271.876953,182.858185 272.004761,181.036880 272.004913,179.215561 
	C272.007812,145.479752 271.981842,111.743919 272.027618,78.008171 
	C272.029846,76.366158 272.633270,74.724968 273.005432,73.548965 
	C273.005432,73.548965 273.140198,73.997269 272.993958,74.803307 
	C275.282715,83.215485 277.571503,91.627663 279.961761,100.847084 
	C281.686554,106.904350 283.411316,112.961624 284.984253,119.818031 
	C286.711365,125.879822 288.438507,131.941605 290.039124,138.793930 
	C291.985199,145.541245 293.931305,152.288559 295.979095,159.859375 
	C297.309479,165.179718 298.737335,170.477951 299.949341,175.825134 
	C302.254456,185.994949 302.203247,186.006561 312.319214,186.006546 
	C314.796448,186.006531 317.273682,186.006546 319.901215,186.006546 
	C322.357361,176.491516 324.739380,167.263626 327.800140,157.657547 
	C328.146423,156.249893 328.492462,154.842194 328.838959,153.434601 
	C330.266693,147.634933 331.694550,141.835281 333.798065,135.654282 
	C334.146393,134.245224 334.496857,132.836685 334.842651,131.426987 
	C336.184662,125.955902 337.525238,120.484459 339.185638,114.306381 
	C340.833588,108.216423 342.481537,102.126465 344.796631,95.645226 
	C346.475494,89.098160 348.154358,82.551094 349.987396,75.398659 
	C350.309845,74.971077 350.632324,74.543488 351.004456,75.037003 
	C351.058624,88.027313 351.112793,101.017624 351.027191,114.934929 
	C351.027191,138.567413 351.027191,162.199890 351.027191,185.844772 
	C357.436371,185.844772 363.222534,185.844772 369.842407,185.594772 
	C369.839417,160.066513 369.836456,134.538254 369.993500,108.083443 
M219.006073,95.105400 
	C217.384796,90.719948 215.763519,86.334488 214.005661,81.468178 
	C214.005661,81.468178 213.868134,80.987595 213.936737,80.441345 
	C213.639877,80.245384 213.343033,80.049423 213.006866,79.074326 
	C211.353928,74.680710 209.701004,70.287094 208.008163,65.109428 
	C207.516556,63.411762 207.118393,61.680058 206.514877,60.023151 
	C205.024719,55.932117 204.545807,50.264168 201.595383,48.239944 
	C198.389191,46.040215 192.850647,47.230099 188.327591,46.967373 
	C187.333954,46.909660 186.189667,46.646484 185.368362,47.026318 
	C183.839050,47.733604 181.688690,48.547611 181.215271,49.837719 
	C179.158981,55.441231 177.614151,61.232433 175.231888,67.333214 
	C173.447174,73.208191 171.662445,79.083176 169.226807,85.336533 
	C166.867844,92.230911 164.508896,99.125282 161.989609,106.780533 
	C159.707733,113.195068 157.425858,119.609596 154.980682,126.782776 
	C153.636963,131.141983 152.293243,135.501190 150.259552,140.209412 
	C148.153244,146.762909 146.046936,153.316406 143.252441,160.219711 
	C140.916321,167.063004 138.580200,173.906311 136.169800,180.967209 
	C141.978149,181.322296 147.549911,181.806366 153.127991,181.895233 
	C154.398712,181.915482 156.471039,180.849045 156.845535,179.805771 
	C159.067993,173.614288 160.899506,167.282471 163.183411,160.303040 
	C165.160660,154.548828 167.137924,148.794617 170.037552,143.007782 
	C181.549881,143.339706 193.083023,144.231812 204.567200,143.805344 
	C212.141678,143.524078 217.840820,144.270981 219.039520,153.775864 
	C222.506790,164.115677 225.974075,174.455475 229.471649,184.885620 
	C236.484161,184.885620 243.436676,184.885620 250.807495,184.885620 
	C246.880814,174.161026 242.999359,163.559967 239.002823,152.460846 
	C238.949646,152.298965 238.896454,152.137070 238.980835,151.343369 
	C238.667770,150.854279 238.354691,150.365189 238.018906,149.101532 
	C234.359558,139.029373 230.700211,128.957214 227.009598,118.100998 
	C224.715363,111.716789 222.421112,105.332588 220.002655,98.460754 
	C219.953476,98.300392 219.904312,98.140038 219.997894,97.343529 
	C219.680588,96.851784 219.363281,96.360039 219.006073,95.105400 
M412.182465,207.021988 
	C409.450928,207.403839 406.719391,207.785690 403.063751,208.025650 
	C397.714233,208.075409 392.364716,208.125168 386.098297,208.023285 
	C377.395081,208.405792 368.691895,208.788300 359.063446,209.021225 
	C336.737885,209.001312 314.412354,208.981400 291.674835,208.179398 
	C282.466888,208.172546 273.258972,208.165710 263.221252,207.989670 
	C261.814667,208.042877 260.408081,208.096069 258.251434,208.005676 
	C257.492889,208.058670 256.734344,208.111664 255.503738,208.044586 
	C255.503738,208.044586 255.034348,208.174820 254.103882,208.023010 
	C247.399780,208.070068 240.695694,208.117126 233.086578,208.021088 
	C228.674118,207.682068 224.266815,207.232224 219.848129,207.027344 
	C210.955353,206.615036 202.057205,206.311310 193.159515,206.016113 
	C190.150162,205.916245 187.121826,206.158279 184.125626,205.932663 
	C172.746506,205.075790 161.376984,204.091431 149.096725,203.019272 
	C142.728409,202.736877 136.360092,202.454498 129.261642,202.019333 
	C114.324005,200.680511 99.377838,199.428864 84.452118,197.968277 
	C76.259422,197.166565 68.113617,195.891342 59.923813,195.052902 
	C52.288708,194.271255 44.623341,193.785233 36.145084,193.428055 
	C36.153751,202.294540 36.162418,211.161026 36.016926,220.950058 
	C36.016926,228.219772 36.016926,235.489487 36.016926,242.494446 
	C36.679592,242.816986 36.819740,242.944992 36.959885,242.944992 
	C113.454468,242.939926 189.949051,242.926239 266.443634,242.909271 
	C266.608124,242.909225 266.772583,242.858902 267.871613,242.985474 
	C298.914337,242.941345 329.957062,242.897217 361.795715,243.000046 
	C362.870941,242.950089 363.946136,242.900131 365.925171,242.989426 
	C369.274048,242.944244 372.622894,242.899048 376.878906,242.986420 
	C379.934479,242.938553 382.990051,242.890686 386.967072,242.988541 
	C462.559174,242.988541 538.151245,242.988541 613.824646,242.988541 
	C613.824646,235.000839 613.824646,227.533630 613.983093,219.132614 
	C613.983093,210.541855 613.983093,201.951096 613.983093,192.840790 
	C607.456970,193.259720 601.411255,193.434204 595.415405,194.075394 
	C581.159241,195.599899 566.952942,197.637863 552.677429,198.922424 
	C537.154297,200.319260 521.575684,201.098953 505.196869,202.040619 
	C502.452271,202.413422 499.707703,202.786240 496.068970,203.007462 
	C483.464020,204.003769 470.870758,205.200714 458.250610,205.936920 
	C446.849243,206.602020 435.418457,206.763535 423.330322,207.005569 
	C422.878693,207.054688 422.427094,207.103806 421.089569,207.011337 
	C418.403442,207.057541 415.717346,207.103760 412.182465,207.021988 
M519.982727,89.766304 
	C523.942383,96.190758 527.902039,102.615211 531.971619,109.762405 
	C532.265686,110.315079 532.577698,110.859062 532.851196,111.421715 
	C536.011841,117.922768 542.051941,123.054581 542.024902,131.931396 
	C542.072205,139.623138 542.119507,147.314865 542.025574,155.933563 
	C542.025574,163.519821 542.025574,171.106079 542.025574,178.193451 
	C548.649231,178.193451 554.741821,178.193451 560.837036,178.193451 
	C560.837036,160.245316 560.837036,143.143646 561.126709,125.395821 
	C565.033020,119.597504 568.939331,113.799187 573.155334,107.378326 
	C578.240173,100.209297 583.325012,93.040276 589.007568,85.456108 
	C595.235779,76.765152 601.464050,68.074196 607.848328,59.165581 
	C602.363708,58.400738 597.273560,57.457195 592.141907,57.081879 
	C589.854858,56.914616 586.403992,57.072769 585.333191,58.486179 
	C579.873596,65.692451 575.019409,73.357422 569.320801,81.160355 
	C569.114807,81.831032 568.908875,82.501717 568.273254,83.253006 
	C568.273254,83.253006 568.101318,83.654869 567.550171,83.980431 
	C563.345825,90.920647 559.141418,97.860855 554.317932,105.126686 
	C552.902466,106.096748 554.387390,109.484360 551.005798,108.457741 
	C551.005798,108.457741 550.857788,107.985535 550.925049,107.444412 
	C550.630859,107.249741 550.336670,107.055077 550.007263,106.128082 
	C546.355286,99.710709 542.703247,93.293343 539.019348,86.155319 
	C535.700134,80.722900 532.380920,75.290489 528.757507,69.228920 
	C527.108276,66.281311 525.466125,63.329723 523.807617,60.387314 
	C522.463989,58.003532 521.226746,55.547176 519.716980,53.272518 
	C517.365723,49.729927 513.750488,50.709679 510.259583,50.607044 
	C505.641876,50.471283 501.046600,49.573479 495.661102,48.906540 
	C500.636841,57.007641 505.254517,64.525772 509.980438,72.772064 
	C513.276794,78.194252 516.573181,83.616432 519.982727,89.766304 
M508.668945,33.981194 
	C509.102051,33.935501 509.535187,33.889809 510.643311,33.977005 
	C511.097046,33.929241 511.550781,33.881477 512.759033,34.231449 
	C516.340332,34.498047 519.933899,34.653969 523.500732,35.050652 
	C537.974426,36.660328 552.443726,38.310883 566.907043,40.011238 
	C577.620422,41.270729 588.315063,42.691315 599.032043,43.917995 
	C603.861633,44.470806 608.725342,44.726009 614.001282,45.150665 
	C614.001282,41.707451 613.766602,38.884571 614.053528,36.115746 
	C614.546082,31.362185 613.514709,28.533548 607.842102,28.868069 
	C605.192200,29.024340 602.486694,27.702690 599.768066,27.330786 
	C591.522461,26.202782 583.258118,25.211422 574.197998,24.019346 
	C571.683472,23.447187 569.195801,22.622616 566.649231,22.352375 
	C560.197021,21.667669 553.697510,21.411825 547.254700,20.660166 
	C531.940308,18.873499 516.667664,16.715113 501.339386,15.067560 
	C491.600494,14.020782 481.786224,13.694176 472.016479,12.910837 
	C460.891144,12.018807 449.787354,10.843389 438.655945,10.046073 
	C430.381165,9.453371 422.078979,9.218025 413.785522,8.921735 
	C410.052734,8.788380 406.296844,9.104257 402.577057,8.846624 
	C395.716919,8.371487 388.885956,7.269288 382.024200,7.070118 
	C371.036560,6.751191 360.033783,6.955589 348.615417,6.176900 
	C333.421844,6.167518 318.228271,6.158135 302.208252,6.326202 
	C301.443634,6.551808 300.683777,6.956039 299.913696,6.976517 
	C285.958893,7.347604 271.994354,7.470633 258.049133,8.056629 
	C239.244751,8.846815 220.450470,9.908659 201.661209,11.012907 
	C194.101379,11.457200 186.572220,12.400235 179.018448,12.976783 
	C169.762543,13.683247 160.479691,14.071143 151.238083,14.919379 
	C143.315887,15.646512 135.442459,16.889627 127.535004,17.795797 
	C111.688599,19.611752 95.833664,21.353373 79.249947,22.969242 
	C78.506714,23.018892 77.763489,23.068542 76.316444,23.216557 
	C75.212540,23.523560 74.108635,23.830563 72.187424,23.985102 
	C60.567352,25.752487 48.947277,27.519875 37.250275,29.298964 
	C37.250275,34.484238 37.250275,39.558273 37.250275,45.334167 
	C40.940498,44.862930 44.289494,44.379829 47.651382,44.015820 
	C60.331753,42.642868 73.020645,41.347847 85.698204,39.949783 
	C100.802032,38.284153 115.897484,36.542568 131.879684,34.978428 
	C132.712158,34.986488 133.551208,35.066830 134.376129,34.991859 
	C148.753983,33.685173 163.119125,32.220676 177.510101,31.082153 
	C188.845673,30.185356 200.208069,29.593563 211.566727,29.031282 
	C226.912018,28.271652 242.261017,27.546146 257.616089,27.036085 
	C272.529388,26.540699 287.452698,26.057781 302.371002,26.076147 
	C319.787933,26.097588 337.206177,26.588459 354.620239,27.019802 
	C378.464600,27.610422 402.306000,28.324141 426.147888,29.010818 
	C436.571350,29.311026 446.995605,29.611578 457.414337,30.037640 
	C462.345673,30.239302 467.265686,30.727032 472.189575,31.101480 
	C484.135773,32.009956 496.081207,32.927994 508.668945,33.981194 
z"/>
<path fill="#5B91D6" opacity="1.000000" stroke="none" 
	d="
M349.037384,6.938784 
	C360.033783,6.955589 371.036560,6.751191 382.024200,7.070118 
	C388.885956,7.269288 395.716919,8.371487 402.577057,8.846624 
	C406.296844,9.104257 410.052734,8.788380 413.785522,8.921735 
	C422.078979,9.218025 430.381165,9.453371 438.655945,10.046073 
	C449.787354,10.843389 460.891144,12.018807 472.016479,12.910837 
	C481.786224,13.694176 491.600494,14.020782 501.339386,15.067560 
	C516.667664,16.715113 531.940308,18.873499 547.254700,20.660166 
	C553.697510,21.411825 560.197021,21.667669 566.649231,22.352375 
	C569.195801,22.622616 571.683472,23.447187 574.491455,24.475454 
	C573.088745,25.287703 571.393982,25.945227 569.696228,25.953239 
	C553.208801,26.031052 536.720886,25.994404 520.233093,26.002968 
	C513.984192,26.006214 512.527710,27.407684 512.004517,33.833710 
	C511.550781,33.881477 511.097046,33.929241 510.157043,33.711494 
	C509.122803,33.578053 508.574890,33.710117 508.026947,33.842178 
	C496.081207,32.927994 484.135773,32.009956 472.189575,31.101480 
	C467.265686,30.727032 462.345673,30.239302 457.414337,30.037640 
	C446.995605,29.611578 436.571350,29.311026 426.147888,29.010818 
	C402.306000,28.324141 378.464600,27.610422 354.620239,27.019802 
	C337.206177,26.588459 319.787933,26.097588 302.371002,26.076147 
	C287.452698,26.057781 272.529388,26.540699 257.616089,27.036085 
	C242.261017,27.546146 226.912018,28.271652 211.566727,29.031282 
	C200.208069,29.593563 188.845673,30.185356 177.510101,31.082153 
	C163.119125,32.220676 148.753983,33.685173 134.376129,34.991859 
	C133.551208,35.066830 132.712158,34.986488 131.439209,34.500481 
	C130.871002,27.881643 129.101227,26.036394 122.953049,26.016293 
	C107.964638,25.967283 92.975426,26.058352 77.988159,25.918245 
	C76.321617,25.902664 74.665619,24.758389 73.004730,24.137566 
	C74.108635,23.830563 75.212540,23.523560 76.855103,23.398777 
	C78.256584,23.429224 79.119423,23.277451 79.982254,23.125679 
	C95.833664,21.353373 111.688599,19.611752 127.535004,17.795797 
	C135.442459,16.889627 143.315887,15.646512 151.238083,14.919379 
	C160.479691,14.071143 169.762543,13.683247 179.018448,12.976783 
	C186.572220,12.400235 194.101379,11.457200 201.661209,11.012907 
	C220.450470,9.908659 239.244751,8.846815 258.049133,8.056629 
	C271.994354,7.470633 285.958893,7.347604 299.913696,6.976517 
	C300.683777,6.956039 301.443634,6.551808 302.912079,6.535540 
	C318.756409,6.809512 333.896881,6.874148 349.037384,6.938784 
z"/>
<path fill="#A5C3E9" opacity="1.000000" stroke="none" 
	d="
M506.021271,202.147705 
	C521.575684,201.098953 537.154297,200.319260 552.677429,198.922424 
	C566.952942,197.637863 581.159241,195.599899 595.415405,194.075394 
	C601.411255,193.434204 607.456970,193.259720 613.983093,192.840790 
	C613.983093,201.951096 613.983093,210.541855 613.506409,219.619934 
	C579.365967,224.454163 545.702271,228.801086 512.024048,232.664597 
	C512.332336,225.960663 512.545898,219.732117 513.003784,213.521561 
	C513.656616,204.665359 513.612793,204.474319 506.021271,202.147705 
z"/>
<path fill="#FEFEFF" opacity="1.000000" stroke="none" 
	d="
M266.937073,242.832047 
	C266.772583,242.858902 266.608124,242.909225 266.443634,242.909271 
	C189.949051,242.926239 113.454468,242.939926 36.959885,242.944992 
	C36.819740,242.944992 36.679592,242.816986 36.016926,242.494446 
	C36.016926,235.489487 36.016926,228.219772 36.308315,220.478607 
	C36.599705,220.007172 37.027126,219.969391 37.431648,220.018951 
	C68.519455,224.118286 99.202744,228.168045 130.213837,232.457809 
	C136.711487,233.187698 142.881363,233.677582 149.424500,234.312134 
	C155.234985,234.979919 160.666763,235.569427 166.110519,236.011841 
	C176.190170,236.831024 186.272736,237.623306 196.361572,238.318130 
	C208.918686,239.182968 221.483368,239.937775 234.497116,240.826218 
	C242.955276,241.220917 250.961090,241.529480 259.390625,241.885254 
	C262.188568,242.232315 264.562805,242.532181 266.937073,242.832047 
z"/>
<path fill="#FEFEFF" opacity="1.000000" stroke="none" 
	d="
M512.038513,233.148010 
	C545.702271,228.801086 579.365967,224.454163 613.427185,220.086853 
	C613.824646,227.533630 613.824646,235.000839 613.824646,242.988541 
	C538.151245,242.988541 462.559174,242.988541 386.596313,242.698395 
	C386.431122,242.162247 386.681244,241.976181 387.439270,241.896362 
	C393.595337,241.656372 399.287994,241.370056 405.450867,241.096466 
	C411.966339,240.786011 418.011597,240.462799 424.518738,240.124115 
	C447.988068,238.402649 470.995575,236.696655 494.455536,235.020767 
	C500.618195,234.416565 506.328339,233.782288 512.038513,233.148010 
z"/>
<path fill="#A7C4E9" opacity="1.000000" stroke="none" 
	d="
M292.086792,208.961487 
	C314.412354,208.981400 336.737885,209.001312 359.528748,209.551941 
	C360.324402,215.724197 360.654755,221.365768 360.557068,227.004105 
	C354.859802,226.667252 349.591736,226.068436 344.321167,226.045502 
	C320.408264,225.941544 296.493866,225.897415 272.582092,226.090607 
	C268.053619,226.127167 263.534637,227.337799 259.006683,227.754227 
	C258.999786,227.333496 258.997467,227.165222 258.996185,226.528961 
	C258.998657,220.090424 259.000061,214.119843 259.001495,208.149277 
	C260.408081,208.096069 261.814667,208.042877 263.951782,208.335434 
	C273.817169,208.774628 282.951965,208.868057 292.086792,208.961487 
z"/>
<path fill="#ADC9EB" opacity="1.000000" stroke="none" 
	d="
M259.011261,228.006714 
	C263.534637,227.337799 268.053619,226.127167 272.582092,226.090607 
	C296.493866,225.897415 320.408264,225.941544 344.321167,226.045502 
	C349.591736,226.068436 354.859802,226.667252 360.564026,227.000732 
	C360.998993,227.000565 360.996338,227.003052 360.946228,227.403183 
	C360.930664,232.819901 360.965210,237.836502 360.999786,242.853088 
	C329.957062,242.897217 298.914337,242.941345 267.404358,242.908752 
	C264.562805,242.532181 262.188568,242.232315 259.401428,241.436127 
	C258.996124,236.628784 259.003693,232.317749 259.011261,228.006714 
z"/>
<path fill="#89B0E1" opacity="1.000000" stroke="none" 
	d="
M219.165878,153.007095 
	C217.840820,144.270981 212.141678,143.524078 204.567200,143.805344 
	C193.083023,144.231812 181.549881,143.339706 169.141541,143.013580 
	C164.321991,143.341354 160.393356,143.949554 156.476776,143.879929 
	C154.054749,143.836884 150.865952,143.814423 150.949524,139.860382 
	C152.293243,135.501190 153.636963,131.141983 155.431793,126.579132 
	C161.929642,126.570320 167.975815,126.821632 174.023834,126.878571 
	C174.677643,126.884727 175.342041,125.764679 176.465347,125.095886 
	C187.902542,125.024742 198.875931,125.024742 210.185562,125.024742 
	C209.667923,123.490837 209.417313,122.748154 209.623917,122.003647 
	C214.360245,122.000450 218.664154,122.259148 222.904846,121.854866 
	C224.364624,121.715691 225.666733,119.922592 227.040863,118.885048 
	C230.700211,128.957214 234.359558,139.029373 238.030579,149.786636 
	C238.309265,150.972885 238.576279,151.474045 238.843277,151.975189 
	C238.896454,152.137070 238.949646,152.298965 238.584442,152.722107 
	C231.832672,152.991272 225.499268,152.999191 219.165878,153.007095 
z"/>
<path fill="#A6C4E9" opacity="1.000000" stroke="none" 
	d="
M150.003876,203.154755 
	C161.376984,204.091431 172.746506,205.075790 184.125626,205.932663 
	C187.121826,206.158279 190.150162,205.916245 193.159515,206.016113 
	C202.057205,206.311310 210.955353,206.615036 219.848129,207.027344 
	C224.266815,207.232224 228.674118,207.682068 233.542206,208.527023 
	C234.327011,214.690567 234.656158,220.348190 234.571609,225.950195 
	C231.872437,225.596390 229.587677,225.045242 227.301422,225.039032 
	C203.822891,224.975357 180.344009,224.968445 156.865555,225.044220 
	C154.248596,225.052673 151.633606,225.671234 149.012741,225.552200 
	C149.339813,217.783279 149.671844,210.469025 150.003876,203.154755 
z"/>
<path fill="#97BAE5" opacity="1.000000" stroke="none" 
	d="
M441.113831,163.956833 
	C458.845978,163.639481 476.583221,163.478531 494.306915,162.901733 
	C499.116394,162.745209 500.181152,164.395676 500.096954,168.887787 
	C499.851349,181.994537 500.026154,181.757904 487.074707,182.063599 
	C468.245972,182.507996 449.424866,183.302124 430.604523,184.047974 
	C427.903015,184.155029 425.223816,184.825684 422.024841,185.313141 
	C422.024841,162.444138 422.024841,140.188766 422.302155,117.469292 
	C422.579468,117.005180 422.992676,117.005280 422.994385,117.448822 
	C422.999023,120.260460 423.001953,122.628548 423.002197,125.465378 
	C423.001984,132.620911 423.004456,139.307709 423.004456,146.463287 
	C423.003174,151.394516 423.116547,155.860779 422.964630,160.318008 
	C422.868774,163.131134 423.975006,164.126923 426.736572,164.037384 
	C431.524811,163.882141 436.320984,163.970581 441.113831,163.956833 
z"/>
<path fill="#A6C4E9" opacity="1.000000" stroke="none" 
	d="
M424.000641,207.147110 
	C435.418457,206.763535 446.849243,206.602020 458.250610,205.936920 
	C470.870758,205.200714 483.464020,204.003769 496.261383,203.327179 
	C495.514008,204.547913 493.778809,205.434280 493.761932,206.352249 
	C493.641510,212.899307 493.871613,219.452820 493.568176,225.992798 
	C490.201691,225.654205 487.258759,225.060654 484.312622,225.044174 
	C467.867706,224.952255 451.420502,224.881897 434.977722,225.091125 
	C431.312592,225.137741 427.662109,226.335190 424.002319,226.534256 
	C424.000061,219.759521 424.000366,213.453323 424.000641,207.147110 
z"/>
<path fill="#81ABDF" opacity="1.000000" stroke="none" 
	d="
M72.039696,105.941612 
	C90.136040,105.941612 108.232391,105.941612 126.668549,105.941612 
	C126.668549,110.938629 126.668549,116.663879 126.668549,123.010033 
	C117.824249,123.010033 108.904854,123.010033 99.049866,123.009392 
	C90.342545,123.005196 82.570419,123.043892 74.799339,122.971329 
	C72.582245,122.950630 70.777336,123.145111 70.414787,125.990692 
	C64.321129,125.993988 58.683186,125.992104 53.029633,125.526596 
	C52.989597,120.716286 52.965172,116.369598 52.965042,111.576157 
	C53.015133,108.747673 53.040932,106.365952 53.527344,103.989990 
	C59.615005,103.992783 65.242050,103.989815 70.933868,104.288033 
	C71.345650,105.040009 71.692673,105.490814 72.039696,105.941612 
z"/>
<path fill="#6195D7" opacity="1.000000" stroke="none" 
	d="
M512.381775,34.032578 
	C512.527710,27.407684 513.984192,26.006214 520.233093,26.002968 
	C536.720886,25.994404 553.208801,26.031052 569.696228,25.953239 
	C571.393982,25.945227 573.088745,25.287703 574.892944,24.549196 
	C583.258118,25.211422 591.522461,26.202782 599.768066,27.330786 
	C602.486694,27.702690 605.192200,29.024340 607.842102,28.868069 
	C613.514709,28.533548 614.546082,31.362185 614.053528,36.115746 
	C613.766602,38.884571 614.001282,41.707451 614.001282,45.150665 
	C608.725342,44.726009 603.861633,44.470806 599.032043,43.917995 
	C588.315063,42.691315 577.620422,41.270729 566.907043,40.011238 
	C552.443726,38.310883 537.974426,36.660328 523.500732,35.050652 
	C519.933899,34.653969 516.340332,34.498047 512.381775,34.032578 
z"/>
<path fill="#6196D7" opacity="1.000000" stroke="none" 
	d="
M72.596077,24.061333 
	C74.665619,24.758389 76.321617,25.902664 77.988159,25.918245 
	C92.975426,26.058352 107.964638,25.967283 122.953049,26.016293 
	C129.101227,26.036394 130.871002,27.881643 130.997650,34.428215 
	C115.897484,36.542568 100.802032,38.284153 85.698204,39.949783 
	C73.020645,41.347847 60.331753,42.642868 47.651382,44.015820 
	C44.289494,44.379829 40.940498,44.862930 37.250275,45.334167 
	C37.250275,39.558273 37.250275,34.484238 37.250275,29.298964 
	C48.947277,27.519875 60.567352,25.752487 72.596077,24.061333 
z"/>
<path fill="#A2C1E8" opacity="1.000000" stroke="none" 
	d="
M36.971294,193.169083 
	C44.623341,193.785233 52.288708,194.271255 59.923813,195.052902 
	C68.113617,195.891342 76.259422,197.166565 84.452118,197.968277 
	C99.377838,199.428864 114.324005,200.680511 129.628510,202.547821 
	C129.994370,207.052032 129.993347,211.027756 129.642120,214.945953 
	C126.667442,211.675385 123.288040,210.901810 119.201866,210.923401 
	C91.818764,211.068054 64.434502,210.994614 37.035694,210.524933 
	C37.004276,204.428314 36.987785,198.798691 36.971294,193.169083 
z"/>
<path fill="#6D9EDA" opacity="1.000000" stroke="none" 
	d="
M52.953316,57.939629 
	C56.273594,57.499004 59.582962,56.936001 62.916035,56.638947 
	C77.306168,55.356438 91.700569,54.119335 106.098808,52.931141 
	C114.632698,52.226894 123.179825,51.683525 131.714462,50.987648 
	C134.985367,50.720951 136.185242,52.073853 136.042038,55.315113 
	C135.851883,59.619328 135.995148,63.938271 135.995148,69.153343 
	C131.219742,69.434357 126.565109,69.708267 121.349724,69.532913 
	C119.104080,68.722435 117.420265,68.052818 115.734108,68.046867 
	C94.842796,67.973206 73.951134,67.996201 53.035400,67.539322 
	C52.991928,64.036118 52.972622,60.987873 52.953316,57.939629 
z"/>
<path fill="#6C9DDA" opacity="1.000000" stroke="none" 
	d="
M273.140198,73.997269 
	C273.140198,73.997269 273.005432,73.548965 272.981018,72.987244 
	C272.354919,71.317894 271.753204,70.210258 270.675232,69.071365 
	C264.521362,69.028008 258.843842,69.015930 253.166306,69.003845 
	C253.166306,61.209179 253.166306,53.414513 253.166306,45.281116 
	C261.980927,44.815304 270.676300,44.355789 279.651123,43.881512 
	C282.466064,53.791553 285.224701,63.503502 287.453491,73.609528 
	C282.329163,74.001495 277.734680,73.999382 273.140198,73.997269 
z"/>
<path fill="#96B9E5" opacity="1.000000" stroke="none" 
	d="
M219.102692,153.391479 
	C225.499268,152.999191 231.832672,152.991272 238.641983,152.971146 
	C242.999359,163.559967 246.880814,174.161026 250.807495,184.885620 
	C243.436676,184.885620 236.484161,184.885620 229.471649,184.885620 
	C225.974075,174.455475 222.506790,164.115677 219.102692,153.391479 
z"/>
<path fill="#96B9E5" opacity="1.000000" stroke="none" 
	d="
M311.047028,157.890594 
	C311.047028,157.890594 311.458130,157.969498 312.091370,157.981262 
	C317.523529,158.007248 322.322479,158.021484 327.121399,158.035721 
	C324.739380,167.263626 322.357361,176.491516 319.901215,186.006546 
	C317.273682,186.006546 314.796448,186.006531 312.319214,186.006546 
	C302.203247,186.006561 302.254456,185.994949 299.949341,175.825134 
	C298.737335,170.477951 297.309479,165.179718 296.401794,159.436981 
	C301.565338,158.639938 306.306183,158.265259 311.047028,157.890594 
z"/>
<path fill="#83ADE0" opacity="1.000000" stroke="none" 
	d="
M542.166809,131.004074 
	C542.051941,123.054581 536.011841,117.922768 532.851196,111.421715 
	C532.577698,110.859062 532.265686,110.315079 532.394043,109.388367 
	C538.926208,108.987000 545.036011,108.959671 551.145813,108.932335 
	C554.387390,109.484360 552.902466,106.096748 554.692566,105.368614 
	C556.505737,106.406456 557.904419,107.787201 559.390381,107.888664 
	C563.857178,108.193687 568.358093,108.000008 572.845703,108.000870 
	C568.939331,113.799187 565.033020,119.597504 560.733032,125.985909 
	C560.223816,128.049072 560.108276,129.522156 559.525635,130.996979 
	C553.428040,131.000504 547.797424,131.002289 542.166809,131.004074 
z"/>
<path fill="#72A1DC" opacity="1.000000" stroke="none" 
	d="
M213.868134,80.987595 
	C213.868134,80.987595 214.005661,81.468178 213.596954,81.723969 
	C207.438065,82.365219 201.687881,82.750687 195.603226,82.933075 
	C194.319107,78.680138 193.369461,74.630272 192.320221,70.155716 
	C190.876709,75.294846 189.508240,80.166794 187.739197,85.176300 
	C181.518341,85.195290 175.698029,85.076721 169.877716,84.958160 
	C171.662445,79.083176 173.447174,73.208191 176.031662,67.157471 
	C185.532761,66.987900 194.234787,67.052704 202.934830,66.950043 
	C204.643158,66.929893 206.343857,66.262413 208.048065,65.893478 
	C209.701004,70.287094 211.353928,74.680710 213.094513,79.697624 
	C213.327927,80.628410 213.556595,80.850639 213.868134,80.987595 
z"/>
<path fill="#97BAE5" opacity="1.000000" stroke="none" 
	d="
M129.992325,215.003494 
	C129.993347,211.027756 129.994370,207.052032 129.993591,202.624207 
	C136.360092,202.454498 142.728409,202.736877 149.550293,203.087006 
	C149.671844,210.469025 149.339813,217.783279 149.008240,225.999954 
	C149.022888,229.324066 149.037064,231.745758 149.051224,234.167465 
	C142.881363,233.677582 136.711487,233.187698 130.254547,231.969116 
	C129.975754,225.828094 129.984039,220.415802 129.992325,215.003494 
z"/>
<path fill="#A9C6EA" opacity="1.000000" stroke="none" 
	d="
M404.980713,241.083740 
	C399.287994,241.370056 393.595337,241.656372 387.446838,241.444489 
	C386.992004,236.296494 386.992950,231.646729 386.995544,226.528992 
	C387.003174,220.098984 387.009186,214.136963 387.015198,208.174927 
	C392.364716,208.125168 397.714233,208.075409 403.529480,208.550110 
	C404.330170,215.049713 404.665070,221.024857 404.998627,227.464844 
	C404.991730,232.314392 404.986206,236.699066 404.980713,241.083740 
z"/>
<path fill="#71A1DB" opacity="1.000000" stroke="none" 
	d="
M569.953369,80.861893 
	C575.019409,73.357422 579.873596,65.692451 585.333191,58.486179 
	C586.403992,57.072769 589.854858,56.914616 592.141907,57.081879 
	C597.273560,57.457195 602.363708,58.400738 607.848328,59.165581 
	C601.464050,68.074196 595.235779,76.765152 588.473938,85.245895 
	C586.236084,84.690529 584.542480,84.124306 582.825684,84.042198 
	C577.922607,83.807693 573.010132,83.769989 568.101318,83.654869 
	C568.101318,83.654869 568.273254,83.253006 568.788330,83.016907 
	C569.520081,82.141174 569.736755,81.501534 569.953369,80.861893 
z"/>
<path fill="#97BAE5" opacity="1.000000" stroke="none" 
	d="
M493.990234,226.004272 
	C493.871613,219.452820 493.641510,212.899307 493.761932,206.352249 
	C493.778809,205.434280 495.514008,204.547913 496.708435,203.402985 
	C499.707703,202.786240 502.452271,202.413422 505.609070,202.094162 
	C513.612793,204.474319 513.656616,204.665359 513.003784,213.521561 
	C512.545898,219.732117 512.332336,225.960663 512.024048,232.664597 
	C506.328339,233.782288 500.618195,234.416565 494.455231,234.571808 
	C493.998383,231.396591 493.994293,228.700424 493.990234,226.004272 
z"/>
<path fill="#97BAE5" opacity="1.000000" stroke="none" 
	d="
M401.833069,159.006439 
	C401.833069,167.462982 401.833069,175.919495 401.833069,184.939316 
	C395.695282,185.400116 389.588013,185.858643 383.026550,186.351242 
	C383.026550,162.054001 383.026550,138.494232 383.303680,114.469917 
	C383.580811,114.005363 383.995117,114.004517 383.996735,114.253082 
	C383.998352,114.501648 384.002441,114.998779 383.999542,115.467384 
	C383.999390,122.622566 384.002136,129.309143 384.002838,136.464630 
	C384.001404,142.090775 383.999725,147.247986 384.003204,152.405212 
	C384.007660,158.993103 384.009460,158.993820 390.354095,158.999741 
	C394.180420,159.003311 398.006744,159.004288 401.833069,159.006439 
z"/>
<path fill="#6C9DDA" opacity="1.000000" stroke="none" 
	d="
M208.028107,65.501450 
	C206.343857,66.262413 204.643158,66.929893 202.934830,66.950043 
	C194.234787,67.052704 185.532761,66.987900 176.357422,66.968567 
	C177.614151,61.232433 179.158981,55.441231 181.215271,49.837719 
	C181.688690,48.547611 183.839050,47.733604 185.368362,47.026318 
	C186.189667,46.646484 187.333954,46.909660 188.327591,46.967373 
	C192.850647,47.230099 198.389191,46.040215 201.595383,48.239944 
	C204.545807,50.264168 205.024719,55.932117 206.514877,60.023151 
	C207.118393,61.680058 207.516556,63.411762 208.028107,65.501450 
z"/>
<path fill="#98BAE5" opacity="1.000000" stroke="none" 
	d="
M369.008698,185.844772 
	C363.222534,185.844772 357.436371,185.844772 351.027191,185.844772 
	C351.027191,162.199890 351.027191,138.567413 351.302917,114.470154 
	C351.578613,114.005386 351.990234,114.003967 351.991394,114.472092 
	C351.996643,121.958809 352.000763,128.977402 352.002777,136.464874 
	C352.001770,143.030075 352.184448,149.133820 351.935089,155.219849 
	C351.788300,158.803360 352.767548,160.351791 356.601746,160.067078 
	C360.698608,159.762863 364.834930,159.989349 368.969421,160.453583 
	C368.992798,169.230255 369.000763,177.537506 369.008698,185.844772 
z"/>
<path fill="#7BA7DE" opacity="1.000000" stroke="none" 
	d="
M567.825745,83.817650 
	C573.010132,83.769989 577.922607,83.807693 582.825684,84.042198 
	C584.542480,84.124306 586.236084,84.690529 588.175110,85.453461 
	C583.325012,93.040276 578.240173,100.209297 573.000488,107.689606 
	C568.358093,108.000008 563.857178,108.193687 559.390381,107.888664 
	C557.904419,107.787201 556.505737,106.406456 555.002075,105.205803 
	C559.141418,97.860855 563.345825,90.920647 567.825745,83.817650 
z"/>
<path fill="#97BAE5" opacity="1.000000" stroke="none" 
	d="
M386.556763,208.099106 
	C387.009186,214.136963 387.003174,220.098984 386.527588,226.530121 
	C377.704102,227.000488 369.350220,227.001770 360.996338,227.003052 
	C360.996338,227.003052 360.998993,227.000565 360.992065,227.003937 
	C360.654755,221.365768 360.324402,215.724197 359.991394,209.626709 
	C368.691895,208.788300 377.395081,208.405792 386.556763,208.099106 
z"/>
<path fill="#6F9FDB" opacity="1.000000" stroke="none" 
	d="
M350.954773,74.115891 
	C350.632324,74.543488 350.309845,74.971077 349.462219,75.700089 
	C344.680206,75.669220 340.423370,75.336922 336.166504,75.004631 
	C337.777496,69.604904 339.388489,64.205170 341.366150,58.674435 
	C343.366058,59.028931 344.991577,59.900696 346.633911,59.933609 
	C354.065918,60.082592 361.502716,59.994537 368.965149,60.458923 
	C368.972992,65.946640 368.953461,70.967278 368.473389,75.992386 
	C362.676086,75.997528 357.339264,75.998192 352.000183,75.619431 
	C351.861145,73.969864 351.724396,72.699738 351.587646,71.429611 
	C351.200134,71.491928 350.812592,71.554245 350.425049,71.616562 
	C350.601624,72.449677 350.778229,73.282784 350.954773,74.115891 
z"/>
<path fill="#93B7E4" opacity="1.000000" stroke="none" 
	d="
M71.040268,176.082596 
	C67.953239,176.050629 64.866211,176.018661 61.063995,175.649902 
	C58.084255,175.070175 55.819702,174.827225 53.044392,174.529480 
	C53.044392,165.866562 53.044392,157.426743 53.507820,148.991745 
	C59.606083,148.992065 65.240913,148.987549 70.921036,149.450745 
	C70.990974,158.639832 71.015617,167.361206 71.040268,176.082596 
z"/>
<path fill="#96B9E4" opacity="1.000000" stroke="none" 
	d="
M559.992676,130.995239 
	C560.108276,129.522156 560.223816,128.049072 560.588257,126.308983 
	C560.837036,143.143646 560.837036,160.245316 560.837036,178.193451 
	C554.741821,178.193451 548.649231,178.193451 542.025574,178.193451 
	C542.025574,171.106079 542.025574,163.519821 542.553589,155.467987 
	C547.409668,155.001068 551.744812,154.848816 556.063538,155.049057 
	C559.175842,155.193375 560.115295,153.952759 560.043884,150.970001 
	C559.884399,144.315170 559.993164,137.653885 559.992676,130.995239 
z"/>
<path fill="#97BAE5" opacity="1.000000" stroke="none" 
	d="
M234.985321,226.005798 
	C234.656158,220.348190 234.327011,214.690567 233.994720,208.598572 
	C240.695694,208.117126 247.399780,208.070068 254.658569,208.239792 
	C255.213242,208.456573 255.655258,208.526459 255.655258,208.526459 
	C255.655258,208.526459 255.975815,208.164673 255.975815,208.164673 
	C256.734344,208.111664 257.492889,208.058670 258.626465,208.077484 
	C259.000061,214.119843 258.998657,220.090424 258.528107,226.530090 
	C250.371628,227.000076 242.684280,227.000961 234.994812,226.752808 
	C234.992661,226.503799 234.985321,226.005798 234.985321,226.005798 
z"/>
<path fill="#6D9EDA" opacity="1.000000" stroke="none" 
	d="
M509.872192,72.043915 
	C505.254517,64.525772 500.636841,57.007641 495.661102,48.906540 
	C501.046600,49.573479 505.641876,50.471283 510.259583,50.607044 
	C513.750488,50.709679 517.365723,49.729927 519.716980,53.272518 
	C521.226746,55.547176 522.463989,58.003532 523.807617,60.387314 
	C525.466125,63.329723 527.108276,66.281311 528.717529,69.902496 
	C527.022217,71.050697 525.381592,71.862137 523.708679,71.935371 
	C519.103760,72.136963 514.485291,72.029259 509.872192,72.043915 
z"/>
<path fill="#7FAADF" opacity="1.000000" stroke="none" 
	d="
M227.025238,118.493027 
	C225.666733,119.922592 224.364624,121.715691 222.904846,121.854866 
	C218.664154,122.259148 214.360245,122.000450 209.541809,121.622421 
	C206.390472,113.829926 203.778458,106.416832 201.624359,99.002457 
	C208.097137,98.983582 214.112000,98.965981 220.126877,98.948380 
	C222.421112,105.332588 224.715363,111.716789 227.025238,118.493027 
z"/>
<path fill="#71A0DB" opacity="1.000000" stroke="none" 
	d="
M53.059563,67.994293 
	C73.951134,67.996201 94.842796,67.973206 115.734108,68.046867 
	C117.420265,68.052818 119.104080,68.722435 120.893936,69.468109 
	C104.983597,70.904449 88.968315,71.956345 72.152397,73.258827 
	C71.191071,76.335739 71.030373,79.162064 70.412750,81.992447 
	C64.324806,81.993759 58.693771,81.990997 53.044014,81.524666 
	C53.036716,76.705498 53.048141,72.349892 53.059563,67.994293 
z"/>
<path fill="#83ACE0" opacity="1.000000" stroke="none" 
	d="
M253.166367,131.004364 
	C253.119614,123.313881 253.072876,115.623390 253.553421,107.467545 
	C259.694550,106.997475 265.308380,106.992767 270.956604,107.456978 
	C270.966583,115.612541 270.942169,123.299187 270.455200,130.990387 
	C264.383881,130.998077 258.775116,131.001221 253.166367,131.004364 
z"/>
<path fill="#8BB2E2" opacity="1.000000" stroke="none" 
	d="
M559.525635,130.996979 
	C559.993164,137.653885 559.884399,144.315170 560.043884,150.970001 
	C560.115295,153.952759 559.175842,155.193375 556.063538,155.049057 
	C551.744812,154.848816 547.409668,155.001068 542.624146,155.004517 
	C542.119507,147.314865 542.072205,139.623138 542.095825,131.467743 
	C547.797424,131.002289 553.428040,131.000504 559.525635,130.996979 
z"/>
<path fill="#79A6DD" opacity="1.000000" stroke="none" 
	d="
M273.067078,74.400284 
	C277.734680,73.999382 282.329163,74.001495 287.378235,74.006325 
	C290.225006,82.026741 292.617249,90.044441 294.934692,98.869949 
	C289.860016,99.798454 284.860168,99.919144 279.860291,100.039841 
	C277.571503,91.627663 275.282715,83.215485 273.067078,74.400284 
z"/>
<path fill="#7CA8DE" opacity="1.000000" stroke="none" 
	d="
M551.075806,108.695038 
	C545.036011,108.959671 538.926208,108.987000 532.338989,109.027000 
	C527.902039,102.615211 523.942383,96.190758 520.402588,89.390465 
	C525.398438,89.009537 529.984863,89.178886 534.544312,88.902100 
	C536.081970,88.808754 537.550903,87.583763 539.051270,86.875961 
	C542.703247,93.293343 546.355286,99.710709 550.093750,106.725357 
	C550.324036,107.627541 550.549866,107.848511 550.857788,107.985535 
	C550.857788,107.985535 551.005798,108.457741 551.075806,108.695038 
z"/>
<path fill="#96B9E5" opacity="1.000000" stroke="none" 
	d="
M162.862427,160.997833 
	C160.899506,167.282471 159.067993,173.614288 156.845535,179.805771 
	C156.471039,180.849045 154.398712,181.915482 153.127991,181.895233 
	C147.549911,181.806366 141.978149,181.322296 136.169800,180.967209 
	C138.580200,173.906311 140.916321,167.063004 143.879089,160.362762 
	C150.624634,160.669830 156.743530,160.833832 162.862427,160.997833 
z"/>
<path fill="#699BD9" opacity="1.000000" stroke="none" 
	d="
M368.937775,59.991837 
	C361.502716,59.994537 354.065918,60.082592 346.633911,59.933609 
	C344.991577,59.900696 343.366058,59.028931 341.446442,58.291382 
	C342.057007,55.134758 343.537323,52.265625 343.716431,49.317436 
	C343.996399,44.709484 346.095428,43.682182 350.285614,43.920719 
	C356.211365,44.258053 362.169861,44.020092 368.573120,44.555832 
	C369.000519,50.053028 368.969147,55.022434 368.937775,59.991837 
z"/>
<path fill="#8EB3E2" opacity="1.000000" stroke="none" 
	d="
M401.909546,158.542908 
	C398.006744,159.004288 394.180420,159.003311 390.354095,158.999741 
	C384.009460,158.993820 384.007660,158.993103 384.003204,152.405212 
	C383.999725,147.247986 384.001404,142.090775 384.470032,136.466248 
	C390.570618,136.000931 396.201935,136.002914 401.833282,136.004913 
	C401.884186,143.363068 401.935089,150.721222 401.909546,158.542908 
z"/>
<path fill="#9DBFE7" opacity="1.000000" stroke="none" 
	d="
M360.946228,227.403183 
	C369.350220,227.001770 377.704102,227.000488 386.525940,226.998077 
	C386.992950,231.646729 386.992004,236.296494 386.983459,241.398163 
	C386.681244,241.976181 386.431122,242.162247 386.135620,242.625519 
	C382.990051,242.890686 379.934479,242.938553 376.125336,242.654190 
	C371.921631,242.498032 368.471497,242.674103 365.021362,242.850189 
	C363.946136,242.900131 362.870941,242.950089 361.397766,242.926575 
	C360.965210,237.836502 360.930664,232.819901 360.946228,227.403183 
z"/>
<path fill="#7BA7DE" opacity="1.000000" stroke="none" 
	d="
M169.552277,85.147346 
	C175.698029,85.076721 181.518341,85.195290 187.682617,85.569595 
	C185.396545,93.229996 182.766495,100.634651 179.713531,107.980736 
	C176.840805,107.614883 174.394333,107.276955 171.940323,107.007866 
	C168.679947,106.650360 165.413681,106.346542 162.149948,106.019661 
	C164.508896,99.125282 166.867844,92.230911 169.552277,85.147346 
z"/>
<path fill="#97BAE5" opacity="1.000000" stroke="none" 
	d="
M405.000000,227.000000 
	C404.665070,221.024857 404.330170,215.049713 403.991547,208.621063 
	C406.719391,207.785690 409.450928,207.403839 412.896057,207.345764 
	C416.398224,207.497345 419.186859,207.325119 421.975464,207.152908 
	C422.427094,207.103806 422.878693,207.054688 423.665466,207.076340 
	C424.000366,213.453323 424.000061,219.759521 423.999878,226.532867 
	C424.000000,227.000000 423.996338,226.997559 423.528442,226.998444 
	C417.040375,226.999557 411.020172,226.999771 405.000000,227.000000 
z"/>
<path fill="#85AEE0" opacity="1.000000" stroke="none" 
	d="
M401.911835,135.773499 
	C396.201935,136.002914 390.570618,136.000931 384.472076,135.997330 
	C384.002136,129.309143 383.999390,122.622566 384.467133,115.467850 
	C390.574280,114.996117 396.210907,114.992531 401.903870,115.454971 
	C401.991028,122.299767 402.021912,128.678543 402.052826,135.057312 
	C402.052826,135.057312 401.990387,135.542084 401.911835,135.773499 
z"/>
<path fill="#89B1E1" opacity="1.000000" stroke="none" 
	d="
M423.006927,145.994507 
	C423.004456,139.307709 423.001984,132.620911 423.469513,125.466690 
	C429.576385,124.995049 435.213287,124.990822 440.904846,125.440269 
	C440.991516,128.945709 441.023468,131.997482 441.055420,135.049255 
	C441.031616,138.399582 441.007751,141.749908 440.451416,145.550812 
	C434.281616,145.999100 428.644257,145.996796 423.006927,145.994507 
z"/>
<path fill="#7BA7DE" opacity="1.000000" stroke="none" 
	d="
M270.922211,106.988068 
	C265.308380,106.992767 259.694550,106.997475 253.623779,107.003998 
	C253.120087,100.314644 253.073334,93.623466 253.553680,86.467133 
	C259.694641,85.998055 265.308502,85.994118 270.960266,86.458542 
	C270.972870,93.613953 270.947540,100.301010 270.922211,106.988068 
z"/>
<path fill="#83ACE0" opacity="1.000000" stroke="none" 
	d="
M162.069778,106.400101 
	C165.413681,106.346542 168.679947,106.650360 171.940323,107.007866 
	C174.394333,107.276955 176.840805,107.614883 179.657425,108.367065 
	C179.554306,110.155022 178.955017,111.468407 178.638840,112.846733 
	C177.699936,116.939789 176.872528,121.058403 176.001526,125.167030 
	C175.342041,125.764679 174.677643,126.884727 174.023834,126.878571 
	C167.975815,126.821632 161.929642,126.570320 155.513458,126.199814 
	C157.425858,119.609596 159.707733,113.195068 162.069778,106.400101 
z"/>
<path fill="#74A2DC" opacity="1.000000" stroke="none" 
	d="
M539.035278,86.515640 
	C537.550903,87.583763 536.081970,88.808754 534.544312,88.902100 
	C529.984863,89.178886 525.398438,89.009537 520.346069,89.026627 
	C516.573181,83.616432 513.276794,78.194252 509.926331,72.407990 
	C514.485291,72.029259 519.103760,72.136963 523.708679,71.935371 
	C525.381592,71.862137 527.022217,71.050697 528.869629,70.217072 
	C532.380920,75.290489 535.700134,80.722900 539.035278,86.515640 
z"/>
<path fill="#8BB2E2" opacity="1.000000" stroke="none" 
	d="
M253.095642,131.467789 
	C258.775116,131.001221 264.383881,130.998077 270.486816,131.459473 
	C270.961639,138.278046 270.942291,144.632080 270.460052,150.990723 
	C264.387238,150.998199 258.777313,151.001099 253.167404,151.004013 
	C253.119904,144.646408 253.072403,138.288818 253.095642,131.467789 
z"/>
<path fill="#8EB3E2" opacity="1.000000" stroke="none" 
	d="
M327.460754,157.846634 
	C322.322479,158.021484 317.523529,158.007248 312.300476,157.971619 
	C313.911621,150.570267 315.946930,143.190308 318.428589,135.589478 
	C323.624084,135.590942 328.373199,135.813278 333.122345,136.035614 
	C331.694550,141.835281 330.266693,147.634933 328.838959,153.434601 
	C328.492462,154.842194 328.146423,156.249893 327.460754,157.846634 
z"/>
<path fill="#8FB4E3" opacity="1.000000" stroke="none" 
	d="
M163.022919,160.650436 
	C156.743530,160.833832 150.624634,160.669830 144.223175,160.187866 
	C146.046936,153.316406 148.153244,146.762909 150.604538,140.034897 
	C150.865952,143.814423 154.054749,143.836884 156.476776,143.879929 
	C160.393356,143.949554 164.321991,143.341354 168.680359,143.029907 
	C167.137924,148.794617 165.160660,154.548828 163.022919,160.650436 
z"/>
<path fill="#699BD9" opacity="1.000000" stroke="none" 
	d="
M422.979645,46.176460 
	C428.696716,46.126698 434.413757,46.076935 440.577515,46.550560 
	C440.963135,53.045059 440.902039,59.016171 440.385864,64.991562 
	C434.290436,64.995338 428.650085,64.994850 423.007568,64.526550 
	C422.996796,58.097980 422.988220,52.137218 422.979645,46.176460 
z"/>
<path fill="#8EB3E2" opacity="1.000000" stroke="none" 
	d="
M311.035400,157.474991 
	C306.306183,158.265259 301.565338,158.639938 296.350952,159.025238 
	C293.931305,152.288559 291.985199,145.541245 290.504150,138.459518 
	C296.086670,138.788055 301.331360,140.981598 306.052307,136.871872 
	C307.709473,143.601044 309.366608,150.330215 311.035400,157.474991 
z"/>
<path fill="#98BAE5" opacity="1.000000" stroke="none" 
	d="
M271.035370,185.112000 
	C267.956146,185.076248 264.876984,185.027985 261.797638,185.008453 
	C259.024017,184.990845 256.250183,185.004730 253.022293,185.004730 
	C253.022293,179.074280 253.022293,173.501846 253.551880,167.465408 
	C259.696442,166.997818 265.311432,166.994232 270.950104,167.459167 
	C270.994354,173.655807 271.014862,179.383896 271.035370,185.112000 
z"/>
<path fill="#78A5DD" opacity="1.000000" stroke="none" 
	d="
M220.064758,98.704567 
	C214.112000,98.965981 208.097137,98.983582 201.543198,98.622498 
	C199.315323,93.207916 197.626511,88.172035 195.937683,83.136154 
	C201.687881,82.750687 207.438065,82.365219 213.665253,81.964394 
	C215.763519,86.334488 217.384796,90.719948 219.024933,95.786926 
	C219.314255,96.972191 219.584702,97.475929 219.855133,97.979675 
	C219.904312,98.140038 219.953476,98.300392 220.064758,98.704567 
z"/>
<path fill="#699BD9" opacity="1.000000" stroke="none" 
	d="
M388.108643,44.962540 
	C392.481873,44.984257 396.855072,45.005974 401.626648,45.550491 
	C401.964813,51.711536 401.904633,57.349777 401.389038,62.992210 
	C395.291168,62.996483 389.648621,62.996563 384.004150,62.528709 
	C383.998993,57.780712 384.160431,53.492077 383.938385,49.223400 
	C383.772644,46.037605 384.834320,44.543003 388.108643,44.962540 
z"/>
<path fill="#91B5E3" opacity="1.000000" stroke="none" 
	d="
M423.004456,146.463287 
	C428.644257,145.996796 434.281616,145.999100 440.376038,146.002594 
	C440.894470,151.679504 440.955780,157.355225 441.065491,163.493896 
	C436.320984,163.970581 431.524811,163.882141 426.736572,164.037384 
	C423.975006,164.126923 422.868774,163.131134 422.964630,160.318008 
	C423.116547,155.860779 423.003174,151.394516 423.004456,146.463287 
z"/>
<path fill="#87AFE1" opacity="1.000000" stroke="none" 
	d="
M306.030945,136.472656 
	C301.331360,140.981598 296.086670,138.788055 290.567383,138.064255 
	C288.438507,131.941605 286.711365,125.879822 285.429749,119.593636 
	C290.958710,119.562828 296.042175,119.756409 301.125671,119.949997 
	C302.753662,125.324478 304.381622,130.698959 306.030945,136.472656 
z"/>
<path fill="#80AADF" opacity="1.000000" stroke="none" 
	d="
M301.073669,119.542084 
	C296.042175,119.756409 290.958710,119.562828 285.505676,119.194069 
	C283.411316,112.961624 281.686554,106.904350 279.911011,100.443466 
	C284.860168,99.919144 289.860016,99.798454 294.952728,99.274406 
	C297.037598,105.625435 299.029633,112.379814 301.073669,119.542084 
z"/>
<path fill="#85AEE0" opacity="1.000000" stroke="none" 
	d="
M333.460205,135.844940 
	C328.373199,135.813278 323.624084,135.590942 318.505554,135.194489 
	C320.084900,128.607361 322.033600,122.194359 324.474548,115.401855 
	C329.599976,115.019279 334.233124,115.016212 338.866302,115.013138 
	C337.525238,120.484459 336.184662,125.955902 334.842651,131.426987 
	C334.496857,132.836685 334.146393,134.245224 333.460205,135.844940 
z"/>
<path fill="#73A2DC" opacity="1.000000" stroke="none" 
	d="
M270.922363,85.990181 
	C265.308502,85.994118 259.694641,85.998055 253.623871,86.003639 
	C253.120178,80.646683 253.073395,75.288071 253.096466,69.466660 
	C258.843842,69.015930 264.521362,69.028008 270.638397,69.527168 
	C271.026031,75.339554 270.974182,80.664871 270.922363,85.990181 
z"/>
<path fill="#7EA9DF" opacity="1.000000" stroke="none" 
	d="
M339.025970,114.659760 
	C334.233124,115.016212 329.599976,115.019279 324.556488,115.011543 
	C326.093140,108.594086 328.040131,102.187439 330.516907,95.390244 
	C335.407654,95.345291 339.768585,95.690903 344.129486,96.036507 
	C342.481537,102.126465 340.833588,108.216423 339.025970,114.659760 
z"/>
<path fill="#93B7E4" opacity="1.000000" stroke="none" 
	d="
M270.926392,166.990646 
	C265.311432,166.994232 259.696442,166.997818 253.624512,167.002411 
	C253.119980,161.978210 253.072449,156.952972 253.096161,151.465881 
	C258.777313,151.001099 264.387238,150.998199 270.487732,151.458420 
	C270.960999,156.944580 270.943695,161.967606 270.926392,166.990646 
z"/>
<path fill="#76A4DD" opacity="1.000000" stroke="none" 
	d="
M344.463074,95.840866 
	C339.768585,95.690903 335.407654,95.345291 330.598145,95.000549 
	C332.103485,88.593391 334.057404,82.185387 336.088928,75.391006 
	C340.423370,75.336922 344.680206,75.669220 349.385132,76.002769 
	C348.154358,82.551094 346.475494,89.098160 344.463074,95.840866 
z"/>
<path fill="#C2D6F0" opacity="1.000000" stroke="none" 
	d="
M270.950104,167.459167 
	C270.943695,161.967606 270.960999,156.944580 270.950623,151.453827 
	C270.942291,144.632080 270.961639,138.278046 270.949402,131.454926 
	C270.942169,123.299187 270.966583,115.612541 270.956604,107.456978 
	C270.947540,100.301010 270.972870,93.613953 270.960266,86.458542 
	C270.974182,80.664871 271.026031,75.339554 271.114685,69.558441 
	C271.753204,70.210258 272.354919,71.317894 272.956665,72.754456 
	C272.633270,74.724968 272.029846,76.366158 272.027618,78.008171 
	C271.981842,111.743919 272.007812,145.479752 272.004913,179.215561 
	C272.004761,181.036880 271.876953,182.858185 271.421967,184.895752 
	C271.014862,179.383896 270.994354,173.655807 270.950104,167.459167 
z"/>
<path fill="#EEF4FB" opacity="1.000000" stroke="none" 
	d="
M401.844421,62.988022 
	C401.904633,57.349777 401.964813,51.711536 402.036743,45.616001 
	C402.364014,45.787781 402.955750,46.416943 402.955566,47.045918 
	C402.946381,76.248085 402.885620,105.450241 402.441833,134.854858 
	C402.021912,128.678543 401.991028,122.299767 401.956543,114.990288 
	C401.917480,108.369904 401.881958,102.680222 401.901428,96.527031 
	C401.919067,91.038734 401.881683,86.013954 401.898804,80.524857 
	C401.917053,74.369698 401.880737,68.678864 401.844421,62.988022 
z"/>
<path fill="#EEF4FB" opacity="1.000000" stroke="none" 
	d="
M440.840942,64.987282 
	C440.902039,59.016171 440.963135,53.045059 441.035950,46.616329 
	C441.363525,46.787453 441.955688,47.416267 441.955536,48.044922 
	C441.947510,76.912582 441.887726,105.780228 441.444702,134.848572 
	C441.023468,131.997482 440.991516,128.945709 440.955872,124.975037 
	C440.916748,117.033035 440.881256,110.009941 440.898804,102.521820 
	C440.916321,95.367256 440.880768,88.677727 440.899170,81.524200 
	C440.915741,75.702576 440.878357,70.344925 440.840942,64.987282 
z"/>
<path fill="#E2EBF8" opacity="1.000000" stroke="none" 
	d="
M71.429260,175.874664 
	C71.015617,167.361206 70.990974,158.639832 70.962234,148.985077 
	C70.928932,140.696320 70.899719,133.340927 70.870506,125.985519 
	C70.777336,123.145111 72.582245,122.950630 74.799339,122.971329 
	C82.570419,123.043892 90.342545,123.005196 98.585159,123.030609 
	C96.061920,123.367493 93.072731,123.880463 90.072624,123.955322 
	C84.275146,124.099983 78.471512,123.997551 71.818260,123.997551 
	C71.818260,141.306671 71.818260,158.486710 71.429260,175.874664 
z"/>
<path fill="#B8D0ED" opacity="1.000000" stroke="none" 
	d="
M369.425537,185.719772 
	C369.000763,177.537506 368.992798,169.230255 368.982178,159.986786 
	C368.971832,151.363571 368.964142,143.676544 368.972229,135.522186 
	C368.979034,128.034302 368.970032,121.013771 368.979065,113.579117 
	C369.015625,111.784515 369.034210,110.404037 369.247955,109.019577 
	C369.443115,109.015587 369.833496,109.009995 369.833496,109.009995 
	C369.836456,134.538254 369.839417,160.066513 369.425537,185.719772 
z"/>
<path fill="#B8D0ED" opacity="1.000000" stroke="none" 
	d="
M53.044388,148.986908 
	C53.044392,157.426743 53.044392,165.866562 53.044392,174.529480 
	C55.819702,174.827225 58.084255,175.070175 60.648575,175.574142 
	C58.146778,175.835159 55.345203,175.835159 52.026447,175.835159 
	C52.026447,154.917267 52.026447,133.926285 52.290382,112.473419 
	C52.554317,112.011520 52.940746,112.022919 52.940746,112.022919 
	C52.965172,116.369598 52.989597,120.716286 53.007977,125.995911 
	C53.016087,134.281540 53.030239,141.634232 53.044388,148.986908 
z"/>
<path fill="#A7C4E9" opacity="1.000000" stroke="none" 
	d="
M369.913513,108.546722 
	C369.833496,109.009995 369.443115,109.015587 369.223511,108.552841 
	C368.981201,103.721924 368.958527,99.353737 368.951904,94.518463 
	C368.956604,88.030220 368.945282,82.009064 368.933899,75.987907 
	C368.953461,70.967278 368.972992,65.946640 368.965149,60.458923 
	C368.969147,55.022434 369.000519,50.053028 369.039825,44.628025 
	C369.361481,45.482758 369.944702,46.792294 369.948608,48.103554 
	C370.008148,68.096710 369.991974,88.090103 369.913513,108.546722 
z"/>
<path fill="#A9C6EA" opacity="1.000000" stroke="none" 
	d="
M52.965042,111.576157 
	C52.940746,112.022919 52.554317,112.011520 52.361019,112.010048 
	C52.176922,94.130379 52.186119,76.252182 52.574318,58.156807 
	C52.972622,60.987873 52.991928,64.036118 53.035400,67.539322 
	C53.048141,72.349892 53.036716,76.705498 53.018482,81.993996 
	C53.030025,89.946007 53.048378,96.965111 53.066730,103.984222 
	C53.040932,106.365952 53.015133,108.747673 52.965042,111.576157 
z"/>
<path fill="#ACC8EA" opacity="1.000000" stroke="none" 
	d="
M348.826416,6.557842 
	C333.896881,6.874148 318.756409,6.809512 303.325317,6.446815 
	C318.228271,6.158135 333.421844,6.167518 348.826416,6.557842 
z"/>
<path fill="#8BB2E2" opacity="1.000000" stroke="none" 
	d="
M350.979614,74.576447 
	C350.778229,73.282784 350.601624,72.449677 350.425049,71.616562 
	C350.812592,71.554245 351.200134,71.491928 351.587646,71.429611 
	C351.724396,72.699738 351.861145,73.969864 351.996307,76.087814 
	C351.998505,82.955772 352.002289,88.975929 352.003021,95.464745 
	C352.002808,101.954796 352.005676,107.976173 352.004517,113.998764 
	C352.000458,113.999962 351.990234,114.003967 351.990234,114.003967 
	C351.990234,114.003967 351.578613,114.005386 351.372803,114.006660 
	C351.112793,101.017624 351.058624,88.027313 350.979614,74.576447 
z"/>
<path fill="#81ABDF" opacity="1.000000" stroke="none" 
	d="
M387.899567,44.594383 
	C384.834320,44.543003 383.772644,46.037605 383.938385,49.223400 
	C384.160431,53.492077 383.998993,57.780712 384.000549,62.997025 
	C383.997223,69.623779 383.995544,75.314285 383.786926,81.004761 
	C383.579956,81.004730 383.165985,81.005585 383.165985,81.005585 
	C383.165985,68.766068 383.165985,56.526546 383.165985,43.969795 
	C384.799072,44.062355 386.244781,44.144295 387.899567,44.594383 
z"/>
<path fill="#80AADF" opacity="1.000000" stroke="none" 
	d="
M422.577209,46.323868 
	C422.988220,52.137218 422.996796,58.097980 423.003296,64.994766 
	C423.004456,71.284401 423.007721,76.638023 423.005890,82.246704 
	C422.997284,82.671814 422.993744,82.841858 422.783997,83.010284 
	C422.577759,83.008675 422.165283,83.007912 422.165283,83.007912 
	C422.168427,70.829033 422.171570,58.650154 422.577209,46.323868 
z"/>
<path fill="#8EB3E2" opacity="1.000000" stroke="none" 
	d="
M422.096436,83.471573 
	C422.165283,83.007912 422.577759,83.008675 422.785034,83.477341 
	C422.997314,90.295738 423.002319,96.645485 423.004272,103.460175 
	C422.998383,108.285179 422.995544,112.645233 422.992676,117.005280 
	C422.992676,117.005280 422.579468,117.005180 422.372864,117.005806 
	C422.120026,105.982697 422.073792,94.958969 422.096436,83.471573 
z"/>
<path fill="#E2EBF8" opacity="1.000000" stroke="none" 
	d="
M70.869675,81.988380 
	C71.030373,79.162064 71.191071,76.335739 71.690384,73.288254 
	C72.018997,83.717125 72.008987,94.367149 72.019333,105.479401 
	C71.692673,105.490814 71.345650,105.040009 70.982414,103.822586 
	C70.934021,96.033432 70.901848,89.010902 70.869675,81.988380 
z"/>
<path fill="#8BB2E2" opacity="1.000000" stroke="none" 
	d="
M383.095947,81.469254 
	C383.165985,81.005585 383.579956,81.004730 383.789978,81.002426 
	C384.000000,81.000122 384.004883,80.997032 384.001038,81.464188 
	C384.000183,86.953102 384.003143,91.974861 384.003601,97.464439 
	C383.999084,103.289673 383.997101,108.647095 383.995117,114.004517 
	C383.995117,114.004517 383.580811,114.005363 383.373657,114.006401 
	C383.119629,103.315933 383.072754,92.624420 383.095947,81.469254 
z"/>
<path fill="#E2EBF8" opacity="1.000000" stroke="none" 
	d="
M291.880798,208.570435 
	C282.951965,208.868057 273.817169,208.774628 264.366699,208.420044 
	C273.258972,208.165710 282.466888,208.172546 291.880798,208.570435 
z"/>
<path fill="#D1E1F3" opacity="1.000000" stroke="none" 
	d="
M36.558189,193.298569 
	C36.987785,198.798691 37.004276,204.428314 37.016155,210.974899 
	C37.016735,214.584381 37.021931,217.276886 37.027126,219.969391 
	C37.027126,219.969391 36.599705,220.007172 36.385391,220.017334 
	C36.162418,211.161026 36.153751,202.294540 36.558189,193.298569 
z"/>
<path fill="#ADC9EB" opacity="1.000000" stroke="none" 
	d="
M365.473267,242.919800 
	C368.471497,242.674103 371.921631,242.498032 375.671753,242.587906 
	C372.622894,242.899048 369.274048,242.944244 365.473267,242.919800 
z"/>
<path fill="#A6C4E9" opacity="1.000000" stroke="none" 
	d="
M421.532532,207.082123 
	C419.186859,207.325119 416.398224,207.497345 413.320435,207.409760 
	C415.717346,207.103760 418.403442,207.057541 421.532532,207.082123 
z"/>
<path fill="#6196D7" opacity="1.000000" stroke="none" 
	d="
M79.616104,23.047461 
	C79.119423,23.277451 78.256584,23.429224 77.207001,23.349594 
	C77.763489,23.068542 78.506714,23.018892 79.616104,23.047461 
z"/>
<path fill="#7BA7DE" opacity="1.000000" stroke="none" 
	d="
M569.637085,81.011124 
	C569.736755,81.501534 569.520081,82.141174 569.003174,82.976608 
	C568.908875,82.501717 569.114807,81.831032 569.637085,81.011124 
z"/>
<path fill="#7FAADF" opacity="1.000000" stroke="none" 
	d="
M219.926514,97.661606 
	C219.584702,97.475929 219.314255,96.972191 219.044891,96.168365 
	C219.363281,96.360039 219.680588,96.851784 219.926514,97.661606 
z"/>
<path fill="#96B9E5" opacity="1.000000" stroke="none" 
	d="
M238.912048,151.659271 
	C238.576279,151.474045 238.309265,150.972885 238.041931,150.173920 
	C238.354691,150.365189 238.667770,150.854279 238.912048,151.659271 
z"/>
<path fill="#6195D7" opacity="1.000000" stroke="none" 
	d="
M508.347961,33.911690 
	C508.574890,33.710117 509.122803,33.578053 509.819519,33.645050 
	C509.535187,33.889809 509.102051,33.935501 508.347961,33.911690 
z"/>
<path fill="#78A5DD" opacity="1.000000" stroke="none" 
	d="
M213.902435,80.714470 
	C213.556595,80.850639 213.327927,80.628410 213.114166,80.087189 
	C213.343033,80.049423 213.639877,80.245384 213.902435,80.714470 
z"/>
<path fill="#83ADE0" opacity="1.000000" stroke="none" 
	d="
M550.891418,107.714973 
	C550.549866,107.848511 550.324036,107.627541 550.111389,107.091522 
	C550.336670,107.055077 550.630859,107.249741 550.891418,107.714973 
z"/>
<path fill="#A7C4E9" opacity="1.000000" stroke="none" 
	d="
M255.739777,208.104630 
	C255.975815,208.164673 255.655258,208.526459 255.655258,208.526459 
	C255.655258,208.526459 255.213242,208.456573 255.123795,208.315704 
	C255.034348,208.174820 255.503738,208.044586 255.739777,208.104630 
z"/>
<path fill="#A8C5E9" opacity="1.000000" stroke="none" 
	d="
M37.431648,220.018951 
	C37.021931,217.276886 37.016735,214.584381 37.031078,211.441895 
	C64.434502,210.994614 91.818764,211.068054 119.201866,210.923401 
	C123.288040,210.901810 126.667442,211.675385 129.642120,214.945953 
	C129.984039,220.415802 129.975754,225.828094 129.926758,231.729095 
	C99.202744,228.168045 68.519455,224.118286 37.431648,220.018951 
z"/>
<path fill="#ACC8EB" opacity="1.000000" stroke="none" 
	d="
M234.571609,225.950195 
	C234.985321,226.005798 234.992661,226.503799 234.941467,227.164841 
	C234.608429,232.130615 234.326614,236.435364 234.044785,240.740097 
	C221.483368,239.937775 208.918686,239.182968 196.361572,238.318130 
	C186.272736,237.623306 176.190170,236.831024 166.110519,236.011841 
	C160.666763,235.569427 155.234985,234.979919 149.424500,234.312134 
	C149.037064,231.745758 149.022888,229.324066 149.013214,226.454605 
	C151.633606,225.671234 154.248596,225.052673 156.865555,225.044220 
	C180.344009,224.968445 203.822891,224.975357 227.301422,225.039032 
	C229.587677,225.045242 231.872437,225.596390 234.571609,225.950195 
z"/>
<path fill="#9DBFE7" opacity="1.000000" stroke="none" 
	d="
M234.497116,240.826218 
	C234.326614,236.435364 234.608429,232.130615 234.943604,227.413849 
	C242.684280,227.000961 250.371628,227.000076 258.527039,226.998077 
	C258.997467,227.165222 258.999786,227.333496 259.006683,227.754242 
	C259.003693,232.317749 258.996124,236.628784 258.977722,241.388947 
	C250.961090,241.529480 242.955276,241.220917 234.497116,240.826218 
z"/>
<path fill="#ACC8EA" opacity="1.000000" stroke="none" 
	d="
M493.568176,225.992798 
	C493.994293,228.700424 493.998383,231.396591 494.002747,234.541718 
	C470.995575,236.696655 447.988068,238.402649 424.498901,239.647217 
	C424.010254,235.123047 424.003296,231.060303 423.996338,226.997559 
	C423.996338,226.997559 424.000000,227.000000 424.002441,227.001389 
	C427.662109,226.335190 431.312592,225.137741 434.977722,225.091125 
	C451.420502,224.881897 467.867706,224.952255 484.312622,225.044174 
	C487.258759,225.060654 490.201691,225.654205 493.568176,225.992798 
z"/>
<path fill="#9DBFE7" opacity="1.000000" stroke="none" 
	d="
M423.528442,226.998444 
	C424.003296,231.060303 424.010254,235.123047 424.037048,239.662689 
	C418.011597,240.462799 411.966339,240.786011 405.450867,241.096481 
	C404.986206,236.699066 404.991730,232.314392 404.998627,227.464844 
	C411.020172,226.999771 417.040375,226.999557 423.528442,226.998444 
z"/>
<path fill="#000000" opacity="1.000000" stroke="none" 
	d="
M195.603226,82.933075 
	C197.626511,88.172035 199.315323,93.207916 201.085297,98.623772 
	C203.778458,106.416832 206.390472,113.829926 209.084595,121.624245 
	C209.417313,122.748154 209.667923,123.490837 210.185562,125.024742 
	C198.875931,125.024742 187.902542,125.024742 176.465347,125.095886 
	C176.872528,121.058403 177.699936,116.939789 178.638840,112.846733 
	C178.955017,111.468407 179.554306,110.155022 180.080322,108.425629 
	C182.766495,100.634651 185.396545,93.229996 188.083191,85.432037 
	C189.508240,80.166794 190.876709,75.294846 192.320221,70.155716 
	C193.369461,74.630272 194.319107,78.680138 195.603226,82.933075 
z"/>
<path fill="#81ABDF" opacity="1.000000" stroke="none" 
	d="
M422.994415,117.448822 
	C422.995544,112.645233 422.998383,108.285179 423.471313,103.461967 
	C429.576172,102.994812 435.210968,102.990829 440.845764,102.986847 
	C440.881256,110.009941 440.916748,117.033035 440.901184,124.521362 
	C435.213287,124.990822 429.576385,124.995049 423.472198,124.997955 
	C423.001953,122.628548 422.999023,120.260460 422.994415,117.448822 
z"/>
<path fill="#89B1E1" opacity="1.000000" stroke="none" 
	d="
M53.507820,148.991745 
	C53.030239,141.634232 53.016087,134.281540 53.023590,126.459549 
	C58.683186,125.992104 64.321129,125.993988 70.414787,125.990692 
	C70.899719,133.340927 70.928932,140.696320 70.916946,148.517380 
	C65.240913,148.987549 59.606083,148.992065 53.507820,148.991745 
z"/>
<path fill="#79A6DD" opacity="1.000000" stroke="none" 
	d="
M70.412758,81.992447 
	C70.901848,89.010902 70.934021,96.033432 70.917648,103.521408 
	C65.242050,103.989815 59.615005,103.992783 53.527344,103.989990 
	C53.048378,96.965111 53.030025,89.946007 53.037205,82.457565 
	C58.693771,81.990997 64.324806,81.993759 70.412758,81.992447 
z"/>
<path fill="#7EA9DF" opacity="1.000000" stroke="none" 
	d="
M383.996735,114.253082 
	C383.997101,108.647095 383.999084,103.289673 384.470764,97.465729 
	C390.575775,96.996315 396.211090,96.993423 401.846436,96.990540 
	C401.881958,102.680222 401.917480,108.369904 401.900269,114.524261 
	C396.210907,114.992531 390.574280,114.996117 384.470032,114.999237 
	C384.002441,114.998779 383.998352,114.501648 383.996735,114.253082 
z"/>
<path fill="#8EB3E2" opacity="1.000000" stroke="none" 
	d="
M368.956451,135.989517 
	C368.964142,143.676544 368.971832,151.363571 368.966766,159.517395 
	C364.834930,159.989349 360.698608,159.762863 356.601746,160.067078 
	C352.767548,160.351791 351.788300,158.803360 351.935089,155.219849 
	C352.184448,149.133820 352.001770,143.030075 352.469788,136.466370 
	C358.278107,135.995804 363.617279,135.992661 368.956451,135.989517 
z"/>
<path fill="#85AEE0" opacity="1.000000" stroke="none" 
	d="
M368.972229,135.522186 
	C363.617279,135.992661 358.278107,135.995804 352.471924,135.997467 
	C352.000763,128.977402 351.996643,121.958809 351.991394,114.472092 
	C351.990234,114.003967 352.000458,113.999962 352.471130,113.999756 
	C358.281525,113.997444 363.621307,113.995346 368.961060,113.993240 
	C368.970032,121.013771 368.979034,128.034302 368.972229,135.522186 
z"/>
<path fill="#76A4DD" opacity="1.000000" stroke="none" 
	d="
M352.006104,94.996078 
	C352.002289,88.975929 351.998505,82.955772 351.998596,76.467239 
	C357.339264,75.998192 362.676086,75.997528 368.473419,75.992386 
	C368.945282,82.009064 368.956604,88.030220 368.491272,94.523849 
	C362.678436,94.996239 357.342285,94.996155 352.006104,94.996078 
z"/>
<path fill="#71A1DB" opacity="1.000000" stroke="none" 
	d="
M423.010986,81.991638 
	C423.007721,76.638023 423.004456,71.284401 423.005493,65.462570 
	C428.650085,64.994850 434.290436,64.995338 440.385864,64.991562 
	C440.878357,70.344925 440.915741,75.702576 440.444153,81.528336 
	C434.293732,81.994843 428.652374,81.993240 423.010986,81.991638 
z"/>
<path fill="#71A0DB" opacity="1.000000" stroke="none" 
	d="
M383.996948,81.002457 
	C383.995544,75.314285 383.997223,69.623779 384.002502,63.464958 
	C389.648621,62.996563 395.291168,62.996483 401.389038,62.992210 
	C401.880737,68.678864 401.917053,74.369698 401.443787,80.528618 
	C395.291107,80.996811 389.647980,80.996918 384.004883,80.997032 
	C384.004883,80.997032 384.000000,81.000122 383.996948,81.002457 
z"/>
<path fill="#78A5DD" opacity="1.000000" stroke="none" 
	d="
M384.001038,81.464188 
	C389.647980,80.996918 395.291107,80.996811 401.389221,80.992935 
	C401.881683,86.013954 401.919067,91.038734 401.901428,96.527023 
	C396.211090,96.993423 390.575775,96.996315 384.473267,96.997910 
	C384.003143,91.974861 384.000183,86.953102 384.001038,81.464188 
z"/>
<path fill="#79A6DD" opacity="1.000000" stroke="none" 
	d="
M423.005890,82.246704 
	C428.652374,81.993240 434.293732,81.994843 440.390167,81.992317 
	C440.880768,88.677727 440.916321,95.367256 440.898804,102.521820 
	C435.210968,102.990829 429.576172,102.994812 423.474365,102.997009 
	C423.002319,96.645485 422.997314,90.295738 422.991272,83.478943 
	C422.993744,82.841858 422.997284,82.671814 423.005890,82.246704 
z"/>
<path fill="#7EA9DF" opacity="1.000000" stroke="none" 
	d="
M352.003021,95.464745 
	C357.342285,94.996155 362.678436,94.996239 368.475250,94.990936 
	C368.958527,99.353737 368.981201,103.721924 369.028320,108.556831 
	C369.034210,110.404037 369.015625,111.784515 368.979065,113.579117 
	C363.621307,113.995346 358.281525,113.997444 352.475159,113.998550 
	C352.005676,107.976173 352.002808,101.954796 352.003021,95.464745 
z"/>
</svg>